<svg width="400" height="120" viewBox="0 0 400 120" xmlns="http://www.w3.org/2000/svg">
  <style>
    .title { font: 700 26px 'Segoe UI', sans-serif; fill: #2f3542; }
    .subtitle { font: 500 14px 'Segoe UI', sans-serif; fill: #747d8c; }
    .brain { fill: none; stroke: #00cec9; stroke-width: 2.5; }
    .signal { fill: none; stroke: #81ecec; stroke-width: 1.8; stroke-dasharray: 4 3; }
  </style>

  <!-- Brain Icon -->
  <path class="brain" d="M60,40c-10,-15 -30,-10 -30,5s20,20 15,30-20,10-15,20 20,10 25,0 10,0 15,0 0,10 10,10 20-10 15-20-20-10-15-30 20-10 15-20-20-10-30,5z"/>

  <!-- Digital Signal -->
  <path class="signal" d="M100,80 Q120,60 140,80 T180,80 T220,80" />

  <!-- Text -->
  <text class="title" x="140" y="55">Lean Startup</text>
  <text class="subtitle" x="140" y="78">Assistant – Smart Innovation Tools</text>
</svg>